<svg width="117" height="30" fill="none" xmlns="http://www.w3.org/2000/svg"><path d="M36.274 22V8.702h2.743c1.013 0 1.775.05 2.285.15.515.093.975.275 1.38.544.457.311.811.715 1.063 1.213.252.493.378 1.037.378 1.635 0 .627-.114 1.134-.343 1.52-.222.382-.6.71-1.133.985.445.182.785.354 1.019.519.24.164.454.375.642.632.404.551.606 1.263.606 2.136 0 .703-.158 1.342-.474 1.916a3.512 3.512 0 0 1-1.337 1.362c-.79.457-1.883.686-3.278.686h-3.55Zm2.47-2.355h1.222c.861 0 1.488-.132 1.88-.396.393-.27.59-.697.59-1.283s-.209-1.02-.624-1.301c-.41-.281-1.043-.422-1.899-.422h-1.169v3.402Zm0-5.819h.791c.75 0 1.292-.105 1.626-.316.334-.217.501-.566.501-1.046 0-.902-.636-1.354-1.907-1.354h-1.01v2.716Zm12.674-2.03c.95 0 1.828.234 2.637.703a5.182 5.182 0 0 1 1.916 1.916c.469.803.703 1.676.703 2.62 0 .937-.237 1.807-.712 2.61a5.203 5.203 0 0 1-1.925 1.898 5.28 5.28 0 0 1-2.654.694c-.961 0-1.852-.231-2.672-.694a5.273 5.273 0 0 1-1.934-1.898 5.039 5.039 0 0 1-.712-2.61c0-.716.138-1.395.413-2.04.282-.65.66-1.207 1.134-1.67a5.387 5.387 0 0 1 1.714-1.116 5.392 5.392 0 0 1 2.092-.413Zm-.097 2.197c-.773 0-1.441.299-2.004.897a2.995 2.995 0 0 0-.835 2.127c0 .832.282 1.544.844 2.135.563.592 1.24.888 2.03.888.797 0 1.48-.293 2.048-.879.569-.592.853-1.3.853-2.127 0-.855-.284-1.576-.853-2.162a2.79 2.79 0 0 0-2.083-.879Zm11.699-2.197c.949 0 1.828.234 2.636.703a5.183 5.183 0 0 1 1.916 1.916c.469.803.703 1.676.703 2.62 0 .937-.237 1.807-.712 2.61a5.205 5.205 0 0 1-1.924 1.898 5.28 5.28 0 0 1-2.655.694 5.346 5.346 0 0 1-2.672-.694 5.272 5.272 0 0 1-1.933-1.898 5.039 5.039 0 0 1-.712-2.61c0-.716.138-1.395.413-2.04.281-.65.66-1.207 1.134-1.67a5.385 5.385 0 0 1 1.714-1.116 5.393 5.393 0 0 1 2.092-.413Zm-.097 2.197c-.774 0-1.442.299-2.004.897a2.996 2.996 0 0 0-.835 2.127c0 .832.281 1.544.844 2.135.562.592 1.239.888 2.03.888.797 0 1.48-.293 2.048-.879.568-.592.852-1.3.852-2.127 0-.855-.284-1.576-.852-2.162a2.79 2.79 0 0 0-2.083-.879ZM70.016 22v-7.796h-1.17v-2.18h1.17V8.702h2.39v3.322h1.442v2.18h-1.442V22h-2.39Zm4.315-3.164h2.408c.117.422.281.73.492.923.211.187.493.281.844.281.317 0 .574-.09.774-.272a.913.913 0 0 0 .307-.704c0-.328-.152-.585-.457-.773a3.294 3.294 0 0 0-.378-.193 15.52 15.52 0 0 0-.861-.308c-.996-.334-1.708-.726-2.136-1.178-.422-.45-.633-1.043-.633-1.775 0-.856.317-1.576.95-2.162.638-.586 1.426-.88 2.364-.88.516 0 1.002.103 1.459.309a3.25 3.25 0 0 1 1.169.86c.217.259.372.525.466.8.1.276.158.616.175 1.02h-2.338c-.105-.527-.416-.79-.931-.79a.949.949 0 0 0-.66.245.77.77 0 0 0-.263.598c0 .305.155.527.466.668.17.07.58.208 1.23.413 1.008.31 1.72.686 2.136 1.125.422.44.633 1.037.633 1.793 0 .955-.346 1.76-1.037 2.417-.692.656-1.535.984-2.532.984a4.019 4.019 0 0 1-1.74-.386 3.367 3.367 0 0 1-1.283-1.055 3.202 3.202 0 0 1-.422-.835c-.094-.287-.16-.662-.202-1.125ZM83.357 22v-7.796H82.19v-2.18h1.168V8.702h2.391v3.322h1.441v2.18h-1.441V22h-2.39Zm5.019 0v-9.976h2.188V13c.317-.463.627-.78.932-.95.305-.17.715-.254 1.23-.254h.185v2.303c-1.43.035-2.144.82-2.144 2.355V22h-2.391Zm15.592-9.976V22h-2.189v-1.292c-.48.545-.978.938-1.494 1.178-.51.234-1.116.351-1.82.351-.96 0-1.824-.22-2.592-.659a4.747 4.747 0 0 1-1.793-1.854c-.428-.791-.641-1.682-.641-2.672 0-1.002.216-1.902.65-2.698a4.74 4.74 0 0 1 1.81-1.881c.774-.452 1.647-.677 2.62-.677.72 0 1.341.126 1.863.378.521.246.987.641 1.397 1.186v-1.336h2.189Zm-5.239 1.97c-.832 0-1.52.292-2.065.878-.539.586-.808 1.33-.808 2.233 0 .872.272 1.581.817 2.126.55.54 1.263.809 2.136.809.867 0 1.564-.275 2.091-.826.534-.55.8-1.272.8-2.162 0-.903-.278-1.638-.835-2.206-.551-.569-1.262-.853-2.135-.853Zm7.19 11.337V12.024h2.188v1.178c.791-.937 1.884-1.406 3.279-1.406.949 0 1.802.223 2.557.668a4.583 4.583 0 0 1 1.767 1.846c.428.79.642 1.681.642 2.671 0 .996-.214 1.896-.642 2.699a4.793 4.793 0 0 1-1.784 1.88c-.756.452-1.609.677-2.558.677a4.537 4.537 0 0 1-1.643-.28 4.69 4.69 0 0 1-1.415-.889v4.263h-2.391Zm5.106-11.338c-.808 0-1.488.293-2.039.88-.545.58-.817 1.306-.817 2.179 0 .85.281 1.561.844 2.136.562.568 1.257.852 2.083.852.802 0 1.476-.287 2.021-.861.551-.58.826-1.295.826-2.145 0-.879-.275-1.605-.826-2.18-.551-.574-1.248-.86-2.092-.86Z" fill="#111"/><path d="M0 26.132A3.868 3.868 0 0 0 3.868 30h22.264A3.868 3.868 0 0 0 30 26.132V3.868A3.868 3.868 0 0 0 26.132 0H3.868A3.868 3.868 0 0 0 0 3.868v22.264Z" fill="#563D7C"/><path d="M12.44 13.27V9.022h3.74c.356 0 .7.03 1.03.089.331.059.624.165.878.318.254.152.458.364.61.636.153.271.23.619.23 1.043 0 .763-.23 1.314-.687 1.653-.458.34-1.043.51-1.756.51H12.44ZM8.446 5.918v18.164h8.803c.814 0 1.607-.102 2.378-.305a6.363 6.363 0 0 0 2.06-.942 4.637 4.637 0 0 0 1.438-1.64c.356-.67.534-1.463.534-2.379 0-1.136-.275-2.107-.826-2.913-.552-.806-1.387-1.37-2.506-1.692.814-.39 1.429-.89 1.844-1.5.416-.611.623-1.374.623-2.29 0-.848-.14-1.56-.42-2.137a3.49 3.49 0 0 0-1.182-1.387c-.51-.347-1.12-.597-1.832-.75a11.31 11.31 0 0 0-2.366-.229H8.446Zm3.994 15.06v-4.986h4.35c.866 0 1.56.2 2.087.598.525.399.788 1.064.788 1.997 0 .475-.08.865-.241 1.17a1.919 1.919 0 0 1-.65.725 2.747 2.747 0 0 1-.94.382 5.34 5.34 0 0 1-1.12.114H12.44Z" fill="#fff"/></svg>