<svg width="79" height="27" fill="none" xmlns="http://www.w3.org/2000/svg"><path d="M14 18a4.5 4.5 0 1 0 0-9 4.5 4.5 0 0 0 0 9Z" fill="#19BCFE"/><path fill-rule="evenodd" clip-rule="evenodd" d="M5 27a4.5 4.5 0 0 0 4.5-4.5V18H5a4.5 4.5 0 1 0 0 9Z" fill="#09CF83"/><path fill-rule="evenodd" clip-rule="evenodd" d="M5 18h4.5V9H5a4.5 4.5 0 1 0 0 9Z" fill="#A259FF"/><path fill-rule="evenodd" clip-rule="evenodd" d="M5 9h4.5V0H5a4.5 4.5 0 0 0 0 9Z" fill="#F24E1E"/><path fill-rule="evenodd" clip-rule="evenodd" d="M14 9H9.5V0H14a4.5 4.5 0 1 1 0 9Z" fill="#FF7262"/><path d="M24.774 21V7.702h6.768v2.356h-4.298v3.129h4.105v2.355h-4.105V21h-2.47Zm8.614 0v-9.976h2.39V21h-2.39Zm0-11.048v-2.25h2.39v2.25h-2.39Zm12.04 1.072h2.286v8.086c0 .99-.088 1.81-.264 2.461-.17.656-.448 1.216-.835 1.679-.949 1.154-2.305 1.731-4.07 1.731-1.218 0-2.276-.278-3.172-.835a4.786 4.786 0 0 1-1.951-2.337h2.716c.351.386.718.659 1.098.817.381.164.85.246 1.407.246.89 0 1.567-.264 2.03-.79.463-.528.715-1.328.756-2.4-.469.55-.958.949-1.468 1.195-.504.24-1.108.36-1.81.36-.938 0-1.782-.225-2.532-.676a4.653 4.653 0 0 1-1.74-1.881c-.416-.809-.624-1.72-.624-2.734 0-1.476.466-2.704 1.397-3.682.932-.979 2.104-1.468 3.516-1.468 1.43 0 2.517.498 3.26 1.494v-1.266Zm-3.023 1.97c-.82 0-1.482.28-1.986.843-.498.557-.747 1.295-.747 2.215 0 .908.252 1.634.756 2.18.51.538 1.192.808 2.048.808.867 0 1.558-.272 2.074-.817.515-.551.773-1.287.773-2.206 0-.903-.27-1.632-.808-2.189-.534-.556-1.237-.835-2.11-.835ZM49.665 21v-9.976h2.188v.94c.352-.421.724-.72 1.117-.896.398-.181.89-.272 1.476-.272.698 0 1.275.12 1.732.36.463.24.864.636 1.204 1.187.404-.54.861-.932 1.37-1.178.51-.246 1.117-.37 1.82-.37.785 0 1.477.147 2.075.44.603.288 1.063.698 1.38 1.23.392.692.588 1.618.588 2.778V21h-2.39v-5.476c0-.51-.038-.917-.115-1.221-.076-.305-.199-.551-.369-.739-.328-.38-.79-.57-1.389-.57-.802 0-1.37.333-1.704 1.001-.206.416-.308 1.113-.308 2.092V21h-2.4v-5.476c0-.925-.149-1.573-.448-1.942-.34-.393-.832-.589-1.476-.589-.85 0-1.424.36-1.723 1.081-.158.393-.237 1.064-.237 2.013V21h-2.391Zm26.912-9.976V21H74.39v-1.292c-.48.545-.979.938-1.495 1.178-.51.234-1.116.351-1.819.351-.96 0-1.825-.22-2.593-.659a4.746 4.746 0 0 1-1.793-1.854c-.427-.791-.641-1.682-.641-2.672 0-1.002.217-1.902.65-2.698a4.74 4.74 0 0 1 1.81-1.881c.774-.452 1.647-.677 2.62-.677.72 0 1.342.126 1.863.378.522.246.987.641 1.398 1.186v-1.336h2.188Zm-5.238 1.97c-.832 0-1.52.292-2.066.878-.539.586-.808 1.33-.808 2.233 0 .872.272 1.581.817 2.126.551.54 1.263.809 2.136.809.867 0 1.564-.275 2.092-.826.533-.55.8-1.272.8-2.162 0-.903-.279-1.638-.835-2.206-.551-.569-1.263-.853-2.136-.853Z" fill="#111"/></svg>