<svg width="61" height="30" fill="none" xmlns="http://www.w3.org/2000/svg"><path d="M41.135 17.518v-2.303h8.7v.325c0 .855-.166 1.685-.5 2.487a6.833 6.833 0 0 1-1.415 2.154c-1.336 1.37-3.015 2.056-5.036 2.056a7.642 7.642 0 0 1-2.857-.536 7.23 7.23 0 0 1-2.302-1.45 6.836 6.836 0 0 1-2.075-4.93 6.854 6.854 0 0 1 2.03-4.87 6.925 6.925 0 0 1 2.224-1.45 7.125 7.125 0 0 1 2.742-.536c.956 0 1.878.176 2.769.527a7.01 7.01 0 0 1 2.32 1.477c.663.633 1.134 1.345 1.415 2.136h-2.9a4.001 4.001 0 0 0-1.556-1.31c-.627-.305-1.327-.457-2.1-.457a4.74 4.74 0 0 0-1.802.343 3.858 3.858 0 0 0-1.415.958c-.38.404-.686.9-.914 1.485a4.803 4.803 0 0 0-.334 1.731c0 1.278.442 2.347 1.327 3.209.885.86 1.98 1.291 3.287 1.291.88 0 1.658-.205 2.338-.615a4.053 4.053 0 0 0 1.564-1.722h-5.51ZM51.409 22v-9.976h2.39V22h-2.39Zm0-11.048v-2.25h2.39v2.25h-2.39ZM56.182 22v-7.796h-1.17v-2.18h1.17V8.702h2.39v3.322h1.442v2.18h-1.442V22h-2.39Z" fill="#111"/><path d="M29.434 13.664 16.336.566a1.932 1.932 0 0 0-2.732 0l-2.72 2.72 3.45 3.45a2.293 2.293 0 0 1 2.906 2.925l3.325 3.325a2.298 2.298 0 1 1-1.377 1.296l-3.1-3.1-.001 8.16a2.3 2.3 0 1 1-1.89-.067V11.04a2.298 2.298 0 0 1-1.248-3.015L9.546 4.622.566 13.603a1.933 1.933 0 0 0 0 2.733l13.099 13.098a1.932 1.932 0 0 0 2.732 0l13.037-13.037a1.933 1.933 0 0 0 0-2.733Z" fill="#DE4C36"/></svg>