<svg width="68" height="30" fill="none" xmlns="http://www.w3.org/2000/svg"><path d="M21.2 5.88 19.27 27.518l-8.682 2.407-8.658-2.403L0 5.88h21.2Z" fill="#E44D26"/><path d="m10.6 28.084 7.015-1.944 1.65-18.49H10.6v20.434Z" fill="#F16529"/><path d="M6.845 12.958H10.6v-2.654H3.945l.063.712.653 7.314H10.6v-2.654H7.088l-.243-2.718Zm.599 6.7H4.779l.372 4.166 5.437 1.51.012-.004V22.57l-.012.003-2.955-.798-.19-2.117Z" fill="#EBEBEB"/><path d="M1.972 0h1.349v1.333h1.234V0h1.349v4.035h-1.35V2.684H3.322v1.351H1.972V0Zm5.705 1.338H6.49V0h3.724v1.338H9.026v2.697H7.677V1.338ZM10.805 0h1.406l.866 1.418L13.94 0h1.407v4.035h-1.344v-2l-.927 1.435h-.024l-.928-1.435v2h-1.32V0Zm5.214 0h1.35v2.701h1.896v1.334h-3.246V0Z" fill="#000"/><path d="M10.59 18.33h3.27l-.31 3.442-2.96.8v2.76l5.442-1.508.04-.448.623-6.987.065-.713h-6.17v2.654Zm0-5.378v.006h6.412l.053-.596.12-1.346.064-.712h-6.648v2.648Z" fill="#fff"/><path d="M32.324 14.257V10.75h2.154v3.507h3.454v2.127h-3.455v3.507h-2.153v-3.507h-3.463v-2.127h3.463Z" fill="#111"/><path d="M65.408 27.657 56.708 30l-8.7-2.343L46 5.907h21.416l-2.008 21.75Z" fill="#2062AF"/><path d="M56.709 7.669V28.13l.02.006 7.04-1.896 1.625-18.572h-8.686Z" fill="#3C9CD7"/><path d="M51.77 2.711V1.417h1.89V0h-3.306v4.004h3.305V2.71h-1.888Zm5.287-1.294h1.32V0h-3.305v1.417c.442.442.673.654 1.313 1.293l-1.313.001v1.293h3.306V2.71l-1.32-1.294Zm4.685 0h1.32V0h-3.305v1.417c.442.442.673.654 1.313 1.293l-1.313.001v1.293h3.306V2.71l-1.32-1.294Z" fill="#000"/><path d="M56.7 13.107 50.473 15.7l.207 2.568 6.02-2.574 6.404-2.738.266-2.627-6.67 2.778Z" fill="#fff"/><path d="m50.473 15.7.207 2.568 6.02-2.574v-2.587L50.473 15.7Z" fill="url(#a)"/><path d="m63.37 10.33-6.67 2.777v2.587l6.405-2.738.266-2.627Z" fill="url(#b)"/><path d="m50.483 15.7.207 2.568 9.237.03-.206 3.423-3.04.856-2.922-.738-.177-2.125h-2.715l.354 4.102 5.49 1.623 5.46-1.593.708-8.146H50.483Z" fill="url(#c)"/><path opacity=".05" d="M56.7 15.7h-6.227l.207 2.568 6.02.02V15.7Zm0 6.869-.03.008-2.921-.738-.177-2.125h-2.715l.354 4.102 5.49 1.624v-2.871Z" fill="#000"/><path d="M49.913 10.33H63.37l-.265 2.626H50.237l-.324-2.627Z" fill="url(#d)"/><path opacity=".05" d="M56.7 10.33h-6.787l.324 2.626H56.7v-2.627Z" fill="#000"/><defs><linearGradient id="a" x1="53.587" y1="18.268" x2="53.587" y2="13.107" gradientUnits="userSpaceOnUse"><stop offset=".387" stop-color="#D1D3D4" stop-opacity="0"/><stop offset="1" stop-color="#D1D3D4"/></linearGradient><linearGradient id="b" x1="60.035" y1="15.694" x2="60.035" y2="10.329" gradientUnits="userSpaceOnUse"><stop offset=".387" stop-color="#D1D3D4" stop-opacity="0"/><stop offset="1" stop-color="#D1D3D4"/></linearGradient><linearGradient id="c" x1="50.483" y1="20.57" x2="62.878" y2="20.57" gradientUnits="userSpaceOnUse"><stop stop-color="#E8E7E5"/><stop offset="1" stop-color="#fff"/></linearGradient><linearGradient id="d" x1="49.913" y1="11.643" x2="63.37" y2="11.643" gradientUnits="userSpaceOnUse"><stop stop-color="#E8E7E5"/><stop offset="1" stop-color="#fff"/></linearGradient></defs></svg>