<svg width="135" height="30" fill="none" xmlns="http://www.w3.org/2000/svg"><path d="M36.274 23V9.702h2.47v5.361H43.5v-5.36h2.461V23h-2.461v-5.581h-4.755V23h-2.47Zm21.78-3.92h-7.726c.147.604.466 1.081.958 1.433.492.351 1.093.527 1.802.527.492 0 .902-.073 1.23-.22.329-.152.648-.41.958-.773h2.61c-.14.451-.404.914-.79 1.389-1.031 1.2-2.35 1.801-3.955 1.801a5.63 5.63 0 0 1-2.127-.404 5.4 5.4 0 0 1-1.723-1.09 5.22 5.22 0 0 1-1.134-1.652 5.044 5.044 0 0 1-.422-2.04 5.202 5.202 0 0 1 2.602-4.552 5.2 5.2 0 0 1 2.654-.703c.979 0 1.86.231 2.646.694a4.782 4.782 0 0 1 1.837 1.916c.445.815.668 1.732.668 2.751 0 .328-.03.636-.088.923Zm-7.796-2.11h5.528c-.152-.638-.466-1.127-.94-1.467-.475-.34-1.081-.51-1.82-.51-.715 0-1.31.17-1.784.51-.469.334-.797.823-.984 1.468Zm11.03-7.4h1.82c0 .451.09.78.272.985.181.199.474.299.879.299.404 0 .697-.1.879-.3.181-.204.272-.533.272-.984h1.82c-.264 1.559-1.254 2.338-2.971 2.338s-2.707-.78-2.97-2.338Zm5.168 3.454h2.426V23h-2.373v-6.592L62.044 23h-2.426v-9.976h2.373v6.592l4.465-6.592Zm4.377 13.307V13.024h2.189v1.178c.79-.937 1.883-1.406 3.278-1.406.949 0 1.802.223 2.557.668a4.582 4.582 0 0 1 1.767 1.846c.428.79.642 1.681.642 2.671 0 .996-.214 1.896-.642 2.699a4.793 4.793 0 0 1-1.784 1.88c-.756.452-1.609.677-2.558.677a4.54 4.54 0 0 1-1.643-.28 4.699 4.699 0 0 1-1.415-.889v4.263h-2.391Zm5.106-11.338c-.808 0-1.488.293-2.039.88-.544.58-.817 1.306-.817 2.179 0 .85.281 1.561.844 2.136.562.568 1.257.852 2.083.852.802 0 1.476-.287 2.021-.861.551-.58.826-1.295.826-2.145 0-.879-.275-1.605-.826-2.18-.55-.574-1.248-.86-2.092-.86Zm11.69-2.197c.95 0 1.828.234 2.637.703a5.182 5.182 0 0 1 1.916 1.916c.468.803.703 1.676.703 2.62 0 .937-.238 1.807-.712 2.61a5.204 5.204 0 0 1-1.925 1.898 5.28 5.28 0 0 1-2.654.694 5.346 5.346 0 0 1-2.672-.694 5.272 5.272 0 0 1-1.934-1.898 5.039 5.039 0 0 1-.712-2.61c0-.716.138-1.395.413-2.04.282-.65.66-1.207 1.134-1.67a5.387 5.387 0 0 1 1.714-1.116 5.393 5.393 0 0 1 2.092-.413Zm-.097 2.197c-.773 0-1.441.299-2.004.897a2.996 2.996 0 0 0-.835 2.127c0 .832.282 1.544.844 2.135.563.592 1.24.888 2.03.888.797 0 1.48-.293 2.048-.879.569-.592.853-1.3.853-2.127 0-.855-.284-1.576-.853-2.162a2.79 2.79 0 0 0-2.083-.879Zm13.931 4.729h2.698c-.416 1.119-1.055 1.986-1.916 2.601-.855.61-1.866.914-3.032.914a5.37 5.37 0 0 1-2.083-.413 5.383 5.383 0 0 1-1.696-1.107 5.193 5.193 0 0 1-1.134-1.661 5.045 5.045 0 0 1-.422-2.04c0-.96.231-1.84.694-2.636a5.025 5.025 0 0 1 1.899-1.89 5.266 5.266 0 0 1 2.663-.694c.715 0 1.394.129 2.039.387a5 5 0 0 1 1.705 1.09c.316.31.565.615.747.914.187.293.366.682.536 1.168h-2.698c-.469-.908-1.245-1.362-2.33-1.362-.831 0-1.514.281-2.047.844-.527.557-.791 1.277-.791 2.162 0 .873.275 1.6.826 2.18.557.574 1.248.861 2.074.861.493 0 .917-.105 1.275-.316.363-.211.694-.545.993-1.002Zm13.983-.642h-7.725c.146.604.466 1.081.958 1.433.492.351 1.092.527 1.801.527.493 0 .903-.073 1.231-.22.328-.152.647-.41.958-.773h2.61c-.14.451-.404.914-.791 1.389-1.031 1.2-2.349 1.801-3.955 1.801a5.63 5.63 0 0 1-2.127-.404 5.392 5.392 0 0 1-1.722-1.09 5.208 5.208 0 0 1-1.134-1.652 5.048 5.048 0 0 1-.422-2.04 5.201 5.201 0 0 1 2.601-4.552 5.203 5.203 0 0 1 2.655-.703c.978 0 1.86.231 2.645.694a4.78 4.78 0 0 1 1.837 1.916c.446.815.668 1.732.668 2.751 0 .328-.029.636-.088.923Zm-7.796-2.11h5.529c-.153-.638-.466-1.127-.941-1.467-.474-.34-1.081-.51-1.819-.51-.715 0-1.31.17-1.784.51-.469.334-.797.823-.985 1.468Zm15.522-1.766h-2.329V23h-2.391v-7.796h-2.32v-2.18h7.04v2.18Zm8.13-2.18h2.426V23h-2.374v-6.592L126.89 23h-2.426v-9.976h2.373v6.592l4.465-6.592Z" fill="#111"/><path d="M26.786 23.572a3.172 3.172 0 0 0-1.378.322l-4.607-4.608h-3.658v2.143h2.77l3.98 3.98c-.209.429-.32.9-.322 1.377a3.214 3.214 0 1 0 3.215-3.215Zm0 4.285a1.071 1.071 0 1 1 0-2.142 1.071 1.071 0 0 1 0 2.142ZM26.786 11.786a3.208 3.208 0 0 0-3.017 2.143h-6.626v2.143h6.626a3.208 3.208 0 1 0 3.017-4.286Zm0 4.286a1.072 1.072 0 1 1 0-2.144 1.072 1.072 0 0 1 0 2.143ZM26.786 0a3.218 3.218 0 0 0-3.215 3.214c.004.514.132 1.018.373 1.471l-4.02 3.886h-2.781v2.143h3.647l4.713-4.556A3.213 3.213 0 1 0 26.786 0Zm0 4.286a1.072 1.072 0 1 1 0-2.143 1.072 1.072 0 0 1 0 2.143Z" fill="#000"/><path d="M17.143 4.286h2.143V2.143h-2.143a4.26 4.26 0 0 0-3.214 1.48 4.26 4.26 0 0 0-3.215-1.48H9.643A9.654 9.654 0 0 0 0 11.786v6.428a9.653 9.653 0 0 0 9.643 9.643h1.071a4.26 4.26 0 0 0 3.215-1.48 4.259 4.259 0 0 0 3.214 1.48h2.143v-2.143h-2.143A2.145 2.145 0 0 1 15 23.571V6.43a2.146 2.146 0 0 1 2.143-2.143Zm-6.429 21.428H9.643a7.505 7.505 0 0 1-7.414-6.428h2.057v-2.143H2.143v-4.286h3.214a3.218 3.218 0 0 0 3.214-3.214V7.5H6.43v2.143a1.073 1.073 0 0 1-1.072 1.071H2.23a7.505 7.505 0 0 1 7.414-6.428h1.071a2.145 2.145 0 0 1 2.143 2.143v4.285h-2.143v2.143h2.143v4.286h-2.143A3.218 3.218 0 0 0 7.5 20.357V22.5h2.143v-2.143a1.072 1.072 0 0 1 1.071-1.071h2.143v4.285a2.145 2.145 0 0 1-2.143 2.143Z" fill="#000"/></svg>