<svg width="128" height="30" fill="none" xmlns="http://www.w3.org/2000/svg"><path d="M36.774 22V8.702h3.296c.908 0 1.62.05 2.136.15.521.1.981.275 1.38.527.539.351.955.823 1.248 1.415.293.592.44 1.26.44 2.004 0 .79-.168 1.509-.502 2.153-.328.645-.779 1.128-1.353 1.45-.363.2-.794.34-1.292.422-.498.082-1.195.123-2.092.123h-.79V22h-2.47Zm2.47-7.418h.72c.75 0 1.313-.059 1.688-.176.352-.1.627-.287.826-.562.206-.276.308-.604.308-.985 0-.421-.102-.782-.308-1.08a1.469 1.469 0 0 0-.843-.598c-.352-.082-.873-.123-1.565-.123h-.826v3.524ZM46.794 22V8.702h2.39v4.008c.686-.621 1.533-.932 2.54-.932.733 0 1.383.144 1.952.431a3.158 3.158 0 0 1 1.344 1.222c.223.369.378.773.466 1.213.094.439.141 1.013.141 1.722V22h-2.39v-5.098c0-1.054-.15-1.801-.449-2.24-.293-.446-.79-.669-1.494-.669-.85 0-1.444.334-1.784 1.002-.217.393-.325 1.043-.325 1.951V22h-2.391Zm15.618-10.204c.95 0 1.828.234 2.637.703a5.182 5.182 0 0 1 1.916 1.916c.469.803.703 1.676.703 2.62 0 .937-.237 1.807-.712 2.61a5.204 5.204 0 0 1-1.925 1.898 5.28 5.28 0 0 1-2.654.694 5.346 5.346 0 0 1-2.672-.694 5.272 5.272 0 0 1-1.933-1.898 5.039 5.039 0 0 1-.712-2.61c0-.716.137-1.395.413-2.04.28-.65.659-1.207 1.133-1.67a5.387 5.387 0 0 1 1.714-1.116 5.393 5.393 0 0 1 2.092-.413Zm-.097 2.197c-.773 0-1.441.299-2.003.897a2.996 2.996 0 0 0-.835 2.127c0 .832.28 1.544.843 2.135.563.592 1.24.888 2.03.888.797 0 1.48-.293 2.048-.879.569-.592.853-1.3.853-2.127 0-.855-.284-1.576-.853-2.162a2.79 2.79 0 0 0-2.083-.879ZM69.408 22v-7.796H68.24v-2.18h1.17V8.702h2.39v3.322h1.441v2.18H71.8V22h-2.39Zm9.844-10.204c.95 0 1.828.234 2.637.703a5.183 5.183 0 0 1 1.916 1.916c.468.803.703 1.676.703 2.62 0 .937-.237 1.807-.712 2.61a5.205 5.205 0 0 1-1.925 1.898 5.28 5.28 0 0 1-2.654.694c-.961 0-1.852-.231-2.672-.694a5.272 5.272 0 0 1-1.934-1.898 5.039 5.039 0 0 1-.712-2.61c0-.716.138-1.395.413-2.04.282-.65.66-1.207 1.134-1.67a5.386 5.386 0 0 1 1.714-1.116 5.392 5.392 0 0 1 2.092-.413Zm-.097 2.197c-.773 0-1.441.299-2.004.897a2.995 2.995 0 0 0-.835 2.127c0 .832.282 1.544.844 2.135.563.592 1.24.888 2.03.888.797 0 1.48-.293 2.048-.879.569-.592.853-1.3.853-2.127 0-.855-.284-1.576-.853-2.162a2.79 2.79 0 0 0-2.083-.879Zm6.117 4.843h2.409c.117.422.28.73.492.923.21.187.492.281.844.281.316 0 .574-.09.773-.272a.913.913 0 0 0 .308-.704c0-.328-.153-.585-.457-.773a3.294 3.294 0 0 0-.378-.193 15.52 15.52 0 0 0-.862-.308c-.996-.334-1.708-.726-2.135-1.178-.422-.45-.633-1.043-.633-1.775 0-.856.316-1.576.949-2.162.639-.586 1.427-.88 2.364-.88.516 0 1.002.103 1.46.309a3.25 3.25 0 0 1 1.168.86c.217.259.372.525.466.8.1.276.158.616.176 1.02h-2.338c-.106-.527-.416-.79-.932-.79a.949.949 0 0 0-.659.245.77.77 0 0 0-.264.598c0 .305.156.527.466.668.17.07.58.208 1.23.413 1.009.31 1.72.686 2.137 1.125.421.44.632 1.037.632 1.793 0 .955-.345 1.76-1.037 2.417-.691.656-1.535.984-2.531.984a4.019 4.019 0 0 1-1.74-.386 3.367 3.367 0 0 1-1.284-1.055 3.202 3.202 0 0 1-.421-.835c-.094-.287-.161-.662-.203-1.125ZM93.868 22V8.702h2.39v4.008c.686-.621 1.533-.932 2.54-.932.733 0 1.384.144 1.952.431a3.164 3.164 0 0 1 1.345 1.222c.222.369.378.773.466 1.213.093.439.14 1.013.14 1.722V22h-2.39v-5.098c0-1.054-.15-1.801-.449-2.24-.293-.446-.79-.669-1.494-.669-.85 0-1.444.334-1.784 1.002-.217.393-.325 1.043-.325 1.951V22h-2.39Zm15.618-10.204c.95 0 1.828.234 2.637.703a5.181 5.181 0 0 1 1.916 1.916 5.1 5.1 0 0 1 .703 2.62c0 .937-.237 1.807-.712 2.61a5.279 5.279 0 0 1-4.579 2.593 5.348 5.348 0 0 1-2.672-.695 5.27 5.27 0 0 1-1.933-1.898 5.035 5.035 0 0 1-.712-2.61c0-.716.137-1.395.413-2.04a5.158 5.158 0 0 1 1.134-1.67 5.372 5.372 0 0 1 1.714-1.116 5.39 5.39 0 0 1 2.091-.413Zm-.096 2.197c-.774 0-1.442.299-2.004.897a2.994 2.994 0 0 0-.835 2.127c0 .832.281 1.544.844 2.135.562.592 1.239.888 2.03.888.797 0 1.479-.293 2.048-.879.568-.592.852-1.3.852-2.127 0-.855-.284-1.576-.852-2.162a2.792 2.792 0 0 0-2.083-.879Zm6.82 11.338V12.024h2.188v1.178c.791-.937 1.884-1.406 3.279-1.406.949 0 1.802.223 2.557.668a4.583 4.583 0 0 1 1.767 1.846c.428.79.642 1.681.642 2.671 0 .996-.214 1.896-.642 2.699a4.793 4.793 0 0 1-1.784 1.88c-.756.452-1.609.677-2.558.677a4.537 4.537 0 0 1-1.643-.28 4.69 4.69 0 0 1-1.415-.889v4.263h-2.391Zm5.106-11.338c-.808 0-1.488.293-2.039.88-.545.58-.817 1.306-.817 2.179 0 .85.281 1.561.844 2.136.562.568 1.257.852 2.083.852.802 0 1.476-.287 2.021-.861.551-.58.826-1.295.826-2.145 0-.879-.275-1.605-.826-2.18-.551-.574-1.248-.86-2.092-.86Z" fill="#111"/><g clip-path="url(#a)"><path d="M.625 10.892c0-3.769 0-5.653.733-7.093A6.73 6.73 0 0 1 4.3.86C5.74.124 7.623.124 11.392.124h8.216c3.77 0 5.653 0 7.093.733A6.73 6.73 0 0 1 29.64 3.8c.734 1.44.734 3.324.734 7.093v8.216c0 3.77 0 5.653-.733 7.093a6.73 6.73 0 0 1-2.941 2.94c-1.44.734-3.324.734-7.093.734h-8.216c-3.769 0-5.653 0-7.093-.733A6.73 6.73 0 0 1 1.36 26.2c-.734-1.44-.734-3.324-.734-7.093v-8.216Z" fill="#001E36"/><path d="M7 21.924V8.84c0-.089.037-.14.124-.14 1.28 0 2.561-.076 3.843-.076 2.079 0 4.33.71 5.12 2.886.185.534.284 1.08.284 1.653 0 1.093-.248 1.996-.743 2.708-1.386 1.989-3.786 1.958-5.938 1.958v4.08c.017.122-.086.179-.186.179H7.149c-.1 0-.149-.051-.149-.165Zm2.702-10.769v4.272c.854.062 1.746.07 2.566-.204.905-.26 1.401-1.044 1.401-1.983.025-.8-.41-1.567-1.153-1.856-.81-.337-1.94-.357-2.814-.229ZM24.103 14.583a4.582 4.582 0 0 0-1.188-.43c-.53-.125-2.623-.562-2.624.532.018.611.988.91 1.417 1.085 1.504.517 3.207 1.44 3.173 3.296.046 2.31-2.192 3.233-4.111 3.234-.999.01-2.04-.145-2.954-.573a.27.27 0 0 1-.14-.246v-2.21c-.01-.09.086-.167.16-.103.896.541 1.958.805 2.994.819.457 0 1.364-.045 1.357-.717 0-.645-1.085-.941-1.517-1.105a7.268 7.268 0 0 1-1.766-.921c-.762-.544-1.24-1.416-1.227-2.375-.005-2.175 2.056-3.151 3.911-3.152.868-.007 1.8.057 2.607.41.116.034.14.156.14.266v2.067c.007.128-.136.172-.232.123Z" fill="#31A8FF"/></g><defs><clipPath id="a"><path fill="#fff" transform="translate(.5)" d="M0 0h30v30H0z"/></clipPath></defs></svg>