<svg width="77" height="30" fill="none" xmlns="http://www.w3.org/2000/svg"><path d="M38.093 22V11.058h-2.47V8.702h7.4v2.356h-2.47V22h-2.46Zm6.03 0v-9.976h2.39V22h-2.39Zm0-11.048v-2.25h2.39v2.25h-2.39ZM48.462 22V8.702h2.392V22h-2.391ZM62.826 8.702V22h-2.197v-1.292c-.486.54-.987.929-1.503 1.169-.516.24-1.11.36-1.784.36a4.889 4.889 0 0 1-2.549-.685 4.906 4.906 0 0 1-1.802-1.89c-.44-.803-.659-1.69-.659-2.663 0-.979.22-1.878.66-2.698a5.05 5.05 0 0 1 1.81-1.934 4.748 4.748 0 0 1 2.522-.703c.627 0 1.213.111 1.758.334.55.223 1.002.527 1.354.914v-4.21h2.39Zm-5.203 5.16c-.809 0-1.491.292-2.048.878-.55.586-.826 1.313-.826 2.18 0 .873.287 1.611.861 2.215.58.603 1.284.905 2.11.905.808 0 1.491-.296 2.048-.888.562-.591.843-1.315.843-2.17 0-.903-.28-1.647-.843-2.233-.563-.592-1.278-.888-2.145-.888Zm17.21-1.838V22h-2.19v-1.292c-.48.545-.978.938-1.494 1.178-.51.234-1.116.351-1.819.351-.96 0-1.825-.22-2.593-.659a4.747 4.747 0 0 1-1.793-1.854c-.427-.791-.641-1.682-.641-2.672 0-1.002.217-1.902.65-2.698a4.74 4.74 0 0 1 1.81-1.881c.774-.452 1.647-.677 2.62-.677.72 0 1.342.126 1.863.378.522.246.987.641 1.398 1.186v-1.336h2.188Zm-5.24 1.97c-.831 0-1.52.292-2.065.878-.539.586-.808 1.33-.808 2.233 0 .872.272 1.581.817 2.126.55.54 1.263.809 2.136.809.867 0 1.564-.275 2.092-.826.533-.55.8-1.272.8-2.162 0-.903-.279-1.638-.835-2.206-.551-.569-1.263-.853-2.136-.853Z" fill="#111"/><g clip-path="url(#a)" fill="#000"><path d="M16.23 13.31v10.4h-1.94V12.58l1.94.73Z"/><path d="M8.48 12.34c0-2.66 1.45-4.11 3.15-4.11s1.94.24 3.87 1.21c1.93.97 2.42 1.21 3.39 1.21.97 0 1.45-.73 1.45-2.18h1.69c.24 2.9-1.45 4.11-3.15 4.11s-2.18-.24-3.87-1.21-2.18-1.21-3.15-1.21c-.97 0-1.45.73-1.69 2.42l-1.69-.24Z"/><path d="M15.5 30c-8.27 0-15-6.73-15-15s6.73-15 15-15 15 6.73 15 15-6.73 15-15 15Zm0-29.03C7.76.97 1.47 7.26 1.47 15c0 7.74 6.29 14.03 14.03 14.03 7.74 0 14.03-6.29 14.03-14.03C29.53 7.26 23.24.97 15.5.97Z"/></g><defs><clipPath id="a"><path fill="#fff" transform="translate(.5)" d="M0 0h30v30H0z"/></clipPath></defs></svg>