<svg width="116" height="30" fill="none" xmlns="http://www.w3.org/2000/svg"><path d="M58.274 23V9.702h3.05c2.174 0 3.791.346 4.852 1.037a5.603 5.603 0 0 1 2.039 2.32c.48.973.72 2.078.72 3.314 0 1.371-.298 2.581-.896 3.63-.592 1.043-1.415 1.813-2.47 2.311a6.967 6.967 0 0 1-1.775.528c-.639.105-1.444.158-2.417.158h-3.103Zm2.47-2.355h.536c1.418 0 2.5-.2 3.243-.598.592-.322 1.061-.815 1.407-1.477a4.675 4.675 0 0 0 .518-2.197c0-.873-.187-1.646-.562-2.32a3.552 3.552 0 0 0-1.556-1.512 4.374 4.374 0 0 0-1.257-.378c-.463-.07-1.078-.105-1.846-.105h-.483v8.587Zm19.661-1.565H72.68c.146.604.465 1.081.958 1.433.492.351 1.093.527 1.801.527.493 0 .903-.073 1.23-.22.329-.152.648-.41.959-.773h2.61c-.14.451-.404.914-.79 1.389-1.032 1.2-2.35 1.801-3.956 1.801a5.63 5.63 0 0 1-2.127-.404 5.4 5.4 0 0 1-1.722-1.09 5.217 5.217 0 0 1-1.134-1.652 5.043 5.043 0 0 1-.422-2.04 5.203 5.203 0 0 1 2.602-4.552 5.2 5.2 0 0 1 2.654-.703c.978 0 1.86.231 2.645.694a4.783 4.783 0 0 1 1.837 1.916c.445.815.668 1.732.668 2.751 0 .328-.03.636-.088.923Zm-7.796-2.11h5.529c-.153-.638-.466-1.127-.94-1.467-.475-.34-1.082-.51-1.82-.51-.715 0-1.31.17-1.784.51-.469.334-.797.823-.985 1.468Zm8.658 2.866h2.408c.117.422.281.73.492.923.21.187.492.281.844.281.316 0 .574-.09.773-.272a.913.913 0 0 0 .308-.704c0-.328-.153-.585-.457-.773a3.287 3.287 0 0 0-.378-.193c-.123-.053-.41-.156-.862-.308-.996-.334-1.707-.726-2.135-1.178-.422-.45-.633-1.043-.633-1.775 0-.856.316-1.576.95-2.162.638-.586 1.426-.88 2.363-.88.516 0 1.002.103 1.46.309a3.25 3.25 0 0 1 1.168.86 2.5 2.5 0 0 1 .466.8c.1.276.158.616.176 1.02h-2.338c-.105-.527-.416-.79-.932-.79a.949.949 0 0 0-.659.245.77.77 0 0 0-.263.598c0 .305.155.527.465.668.17.07.58.208 1.23.413 1.009.31 1.72.686 2.137 1.125.422.44.632 1.037.632 1.793 0 .955-.345 1.76-1.037 2.417-.691.656-1.535.984-2.53.984a4.019 4.019 0 0 1-1.741-.386 3.368 3.368 0 0 1-1.283-1.055 3.198 3.198 0 0 1-.422-.835c-.094-.287-.161-.662-.202-1.125ZM89.862 23v-9.976h2.39V23h-2.39Zm0-11.048v-2.25h2.39v2.25h-2.39Zm12.041 1.072h2.285v8.086c0 .99-.087 1.81-.263 2.461-.17.656-.448 1.216-.835 1.679-.949 1.154-2.306 1.731-4.07 1.731-1.218 0-2.276-.278-3.172-.835a4.785 4.785 0 0 1-1.951-2.337h2.715c.352.386.718.659 1.099.817.38.164.85.246 1.406.246.891 0 1.568-.264 2.03-.79.463-.528.715-1.328.756-2.4-.468.55-.958.949-1.467 1.195-.504.24-1.108.36-1.811.36-.938 0-1.781-.225-2.531-.676a4.652 4.652 0 0 1-1.74-1.881c-.416-.809-.624-1.72-.624-2.734 0-1.476.465-2.704 1.397-3.682.932-.979 2.104-1.468 3.516-1.468 1.429 0 2.516.498 3.26 1.494v-1.266Zm-3.023 1.97c-.82 0-1.483.28-1.986.843-.499.557-.748 1.295-.748 2.215 0 .908.252 1.634.756 2.18.51.538 1.193.808 2.048.808.867 0 1.559-.272 2.074-.817.516-.551.774-1.287.774-2.206 0-.903-.27-1.632-.809-2.189-.533-.556-1.236-.835-2.11-.835ZM106.14 23v-9.976h2.206v.958c.439-.427.873-.732 1.3-.914.428-.181.932-.272 1.512-.272 1.453 0 2.514.51 3.182 1.53.24.386.407.822.501 1.309.099.486.149 1.16.149 2.021V23h-2.39v-4.878c0-1.289-.17-2.136-.51-2.54-.322-.393-.788-.589-1.398-.589-.82 0-1.415.322-1.784.967a2.199 2.199 0 0 0-.299.852c-.052.34-.079.835-.079 1.486V23h-2.39Z" fill="#111"/><path d="M6.083 12.254V15c0 .916.55 2.747 2.747 2.747s2.746-1.831 2.746-2.747v-2.746m4.12 0L17.756 15m0 0 2.06 2.747M17.756 15l2.06-2.746M17.756 15l-2.06 2.747" stroke="#000" stroke-width="1.831" stroke-linecap="round" stroke-linejoin="round"/><path d="M29 15c0 7.732-6.268 14-14 14S1 22.732 1 15 7.268 1 15 1s14 6.268 14 14Z" stroke="#000" stroke-width="2" stroke-linecap="round" stroke-linejoin="round"/><path d="M33.243 12.254V15c0 .916.55 2.747 2.746 2.747 2.198 0 2.747-1.831 2.747-2.747v-2.746m5.264 0v5.493" stroke="#000" stroke-width="1.831" stroke-linecap="round" stroke-linejoin="round"/><path d="M51 15c0 7.732-6.268 14-14 14s-14-6.268-14-14S29.268 1 37 1s14 6.268 14 14Z" stroke="#000" stroke-width="2" stroke-linecap="round" stroke-linejoin="round"/></svg>