<svg width="50" height="50" fill="none" xmlns="http://www.w3.org/2000/svg"><path d="M25 0C11.193 0 0 11.193 0 25s11.193 25 25 25 25-11.193 25-25S38.807 0 25 0Zm9.615 28.206s2.21 2.182 2.755 3.195c.015.02.023.042.028.052.222.373.274.662.164.878-.182.36-.807.536-1.02.552h-3.907c-.27 0-.838-.07-1.526-.544-.528-.37-1.05-.977-1.557-1.568-.758-.88-1.414-1.64-2.075-1.64a.793.793 0 0 0-.248.038c-.5.162-1.14.875-1.14 2.776 0 .594-.47.935-.8.935H23.5c-.61 0-3.784-.213-6.596-3.18-3.443-3.632-6.542-10.919-6.568-10.986-.195-.472.208-.724.648-.724h3.946c.526 0 .698.32.817.604.141.33.657 1.646 1.503 3.125 1.372 2.411 2.213 3.39 2.888 3.39a.781.781 0 0 0 .362-.093c.88-.49.716-3.628.677-4.279 0-.122-.003-1.404-.453-2.018-.323-.446-.872-.615-1.206-.677.135-.187.313-.338.518-.44.605-.303 1.693-.347 2.774-.347h.602c1.171.016 1.473.091 1.898.198.86.206.878.76.802 2.659a41.31 41.31 0 0 0-.047 1.867c0 .156-.008.323-.008.5-.026.966-.057 2.063.625 2.513a.562.562 0 0 0 .297.086c.237 0 .95 0 2.883-3.315a25.306 25.306 0 0 0 1.55-3.318c.039-.067.153-.276.289-.357.1-.05.21-.076.322-.075h4.638c.506 0 .852.075.917.27.115.31-.02 1.256-2.138 4.123l-.945 1.248c-1.92 2.515-1.92 2.643.12 4.552Z" fill="#ffb92f"/></svg>