<svg width="92" height="31" fill="none" xmlns="http://www.w3.org/2000/svg"><path d="M45.256 22 40.07 8.702h2.593l3.586 10.116 3.577-10.116h2.593L47.269 22h-2.013Zm16.33-9.976V22H59.37v-.958c-.457.44-.9.75-1.327.932-.422.175-.932.263-1.53.263-.673 0-1.277-.134-1.81-.404a3.353 3.353 0 0 1-1.292-1.169 4.066 4.066 0 0 1-.545-1.336c-.105-.486-.158-1.137-.158-1.951v-5.353h2.4v4.878c0 .692.038 1.234.114 1.626.076.387.205.692.386.914.346.399.809.598 1.389.598.416 0 .785-.082 1.108-.246.328-.17.577-.407.746-.712.13-.223.217-.51.264-.861.053-.358.08-.856.08-1.494v-4.703h2.39Zm11.786 6.056h-7.725c.146.604.465 1.081.957 1.433.493.351 1.093.527 1.802.527.492 0 .903-.073 1.23-.22.329-.152.648-.41.959-.773h2.61c-.14.451-.404.914-.79 1.389-1.032 1.2-2.35 1.801-3.956 1.801a5.63 5.63 0 0 1-2.127-.404 5.4 5.4 0 0 1-1.723-1.09 5.217 5.217 0 0 1-1.133-1.652 5.043 5.043 0 0 1-.422-2.04 5.203 5.203 0 0 1 2.601-4.552 5.2 5.2 0 0 1 2.655-.703c.978 0 1.86.231 2.645.694a4.783 4.783 0 0 1 1.837 1.916c.445.815.668 1.732.668 2.751 0 .328-.03.636-.088.923Zm-7.796-2.11h5.529c-.153-.638-.466-1.127-.94-1.467-.476-.34-1.082-.51-1.82-.51-.715 0-1.31.17-1.784.51-.47.334-.797.823-.985 1.468ZM74.91 22v-2.303h2.39V22h-2.39Zm4.948-9.976h2.4v9.308c0 .744-.085 1.365-.255 1.863-.17.504-.44.929-.809 1.275-.62.574-1.394.861-2.32.861v-2.32c.24-.041.419-.085.536-.132a.589.589 0 0 0 .29-.273 1.11 1.11 0 0 0 .132-.483c.018-.182.026-.463.026-.844v-9.255Zm0-1.072v-2.25h2.4v2.25h-2.4Zm3.64 7.884h2.407c.117.422.281.73.492.923.211.187.493.281.844.281.317 0 .574-.09.774-.272a.913.913 0 0 0 .307-.704c0-.328-.152-.585-.457-.773a3.286 3.286 0 0 0-.378-.193c-.123-.053-.41-.156-.861-.308-.996-.334-1.708-.726-2.136-1.178-.422-.45-.633-1.043-.633-1.775 0-.856.317-1.576.95-2.162.638-.586 1.426-.88 2.364-.88.515 0 1.002.103 1.459.309a3.25 3.25 0 0 1 1.169.86c.217.259.372.525.466.8.1.276.158.616.175 1.02h-2.337c-.106-.527-.416-.79-.932-.79a.949.949 0 0 0-.66.245.77.77 0 0 0-.263.598c0 .305.155.527.466.668.17.07.58.208 1.23.413 1.008.31 1.72.686 2.136 1.125.422.44.633 1.037.633 1.793 0 .955-.346 1.76-1.037 2.417-.692.656-1.535.984-2.532.984a4.019 4.019 0 0 1-1.74-.386 3.367 3.367 0 0 1-1.283-1.055 3.202 3.202 0 0 1-.422-.835c-.093-.287-.16-.662-.202-1.125Z" fill="#111"/><path d="M28 .05h7l-17.5 30L0 .05h13.387L17.5 7.008 21.525.051H28Z" fill="#41B883"/><path d="m0 .05 17.5 30L35 .05h-7l-10.5 18L6.912.05H0Z" fill="#41B883"/><path d="M6.912.05 17.5 18.139 28 .05h-6.475L17.5 7.007 13.387.051H6.912Z" fill="#35495E"/></svg>