<svg width="50" height="50" fill="none" xmlns="http://www.w3.org/2000/svg"><path fill-rule="evenodd" clip-rule="evenodd" d="M25 50c13.807 0 25-11.193 25-25S38.807 0 25 0 0 11.193 0 25s11.193 25 25 25Zm.67-38.75c3.476 0 6.77 1.367 9.239 3.828 2.47 2.462 3.75 5.743 3.841 9.116 0 7.2-5.854 13.034-13.08 13.034-2.194 0-4.298-.547-6.219-1.55L12.5 37.503l1.83-6.746a13.18 13.18 0 0 1-1.739-6.471c0-7.201 5.854-13.035 13.08-13.035Zm4.117 19.233c.64-.091 1.92-.82 2.195-1.55.274-.729.274-1.367.183-1.64-.092-.091-.275-.183-.64-.365-.275-.182-1.921-1.003-2.196-1.094-.274-.09-.549-.182-.731.183-.183.364-.824 1.093-1.006 1.276-.183.182-.366.273-.732.09a6.97 6.97 0 0 0-.21-.097 9.622 9.622 0 0 1-2.443-1.543c-1.006-.911-1.646-1.914-1.829-2.279-.183-.273 0-.455.183-.638.038-.038.091-.107.154-.187.089-.115.196-.253.303-.36.183-.182.275-.364.366-.547a.58.58 0 0 0 0-.546c-.06-.06-.36-.794-.634-1.47a60.29 60.29 0 0 0-.372-.9c-.245-.57-.49-.558-.67-.55l-.062.003h-.64c-.274 0-.64 0-.915.364a4.215 4.215 0 0 1-.134.165c-.343.409-.963 1.146-.963 2.57 0 1.64 1.189 3.19 1.372 3.372l.02.03c.28.425 2.358 3.563 5.56 4.893.51.254.975.42 1.365.558.17.06.325.116.463.17a5.128 5.128 0 0 0 2.013.092Z" fill="#ffb92f"/></svg>